<svg width="753" height="493" viewBox="0 0 753 493" fill="none" xmlns="http://www.w3.org/2000/svg">
<path d="M722 246.53L595.221 289.423L673.632 369.795L532.403 363.599L541.566 460.033L423.773 406.492L360.956 493L298.139 406.492L180.434 460.033L189.509 363.599L48.28 369.795L126.691 289.423L0 246.53L126.691 203.637L48.28 123.205L189.509 129.401L180.434 33.0271L298.139 86.5081L360.956 0L423.773 86.5081L541.566 33.0271L532.403 129.401L673.632 123.205L595.221 203.637L722 246.53Z" fill="#29F8F4"/>
<path d="M440.75 408.491C590.314 393.851 707.234 337.799 701.898 283.295C696.563 228.791 570.993 196.475 421.43 211.115C271.866 225.756 154.946 281.808 160.282 336.312C165.617 390.816 291.187 423.132 440.75 408.491Z" fill="#19223F"/>
<path d="M432.129 392.885C581.692 378.244 698.612 322.192 693.277 267.688C687.942 213.184 562.372 180.868 412.808 195.509C263.245 210.149 146.325 266.201 151.66 320.705C156.996 375.209 282.566 407.525 432.129 392.885Z" fill="#B76FEF"/>
<path d="M255.002 314.533L179.799 307.622L180.267 302.523L190.464 303.46L198.898 211.687L188.701 210.75L189.169 205.651L264.372 212.562L275.137 225.506L272.63 252.783L261.079 262.39L270.686 273.942L267.945 303.768L255.002 314.533ZM228.214 214.381L224.349 256.444L242.576 258.119L246.441 216.056L228.214 214.381ZM223.88 261.542L219.781 306.154L238.008 307.829L242.107 263.217L223.88 261.542ZM358.578 260.167L353.963 310.387L339.628 322.309L292.722 317.999L280.8 303.664L285.415 253.443L299.75 241.521L346.656 245.832L358.578 260.167ZM316.744 248.224L310.653 314.505L322.634 315.606L328.725 249.325L316.744 248.224ZM458.998 328.137L458.529 333.236L429.595 330.577L419.988 319.025L425.575 258.226L416.653 257.406L406.91 265.508L401.639 322.866L408.012 323.452L407.544 328.551L361.657 324.334L362.126 319.235L372.323 320.172L378.414 253.892L368.217 252.955L368.685 247.856L396.345 250.398L404.575 260.152L414.317 252.049L443.506 254.732L454.271 267.675L448.801 327.2L458.998 328.137ZM557.247 337.166L556.778 342.265L529.119 339.723L521.028 329.853L511.146 338.071L479.281 335.143L468.516 322.2L473.365 269.43L486.309 258.665L517.41 261.523L523.66 269.039L527.104 231.565L516.907 230.628L517.375 225.529L545.035 228.071L555.799 241.014L547.05 336.229L557.247 337.166ZM518.553 324.613L522.934 276.942L514.137 266.364L503.94 265.427L497.849 331.708L508.811 332.715L518.553 324.613ZM633.209 257.126L630.585 285.677L619.034 295.285L606.032 294.09L604.275 313.209L580.057 310.984L582.283 286.766L600.765 288.464L604.396 248.951L585.404 247.205L577.054 254.15L576.199 263.455L570.463 262.928L571.517 251.456L583.069 241.849L623.602 245.574L633.209 257.126ZM579.12 321.181L603.338 323.406L601.23 346.35L577.012 344.124L579.12 321.181Z" fill="#19223F"/>
<path d="M36.4435 198.776L40.3294 198.26L40.6241 200.481L19.529 203.28L19.2343 201.059L23.6754 200.47L18.3716 160.5L13.9305 161.09L13.6359 158.869L34.731 156.07L35.0256 158.291L31.1397 158.806L36.4435 198.776ZM66.3097 194.813L66.6043 197.033L49.0066 199.368L35.8745 179.588L35.5872 177.423L48.4044 156.515L43.4637 157.171L43.169 154.95L56.8253 153.138L57.12 155.359L51.4576 156.11L38.696 177.01L49.3546 175.596L62.4238 195.328L66.3097 194.813ZM108.8 189.174L109.094 191.395L97.0478 192.994L92.6389 189.568L89.2204 194.032L76.7854 195.682L70.9376 191.205L67.4975 165.28L63.0564 165.869L62.7618 163.649L74.5306 162.087L80.3784 166.565L83.8185 192.489L87.7045 191.974L91.0748 187.572L87.4652 160.371L95.0706 159.361L100.918 163.839L104.358 189.764L108.8 189.174ZM116.319 140.724L122.167 145.202L127.964 188.891L120.359 189.9L114.511 185.423L109.009 143.954L104.568 144.543L104.273 142.323L116.319 140.724ZM152.207 183.415L152.501 185.635L136.847 187.712L127.135 171.997L126.848 169.832L137.478 153.734L143.862 152.887L144.157 155.107L139.05 155.785L130.067 169.405L139.782 168.116L149.431 183.783L152.207 183.415ZM161.292 184.469L156.073 180.472L154.938 171.923L158.934 166.704L173.201 164.811L171.433 151.488L165.604 152.261L166.783 161.144L155.125 162.691L154.263 156.195L158.26 150.976L179.299 148.185L184.518 152.181L188.032 178.661L192.473 178.071L192.768 180.292L180.166 181.964L176.386 179.02L173.449 182.855L161.292 184.469ZM167.667 167.805L169.435 181.128L171.933 180.797L174.822 177.024L173.496 167.032L167.667 167.805ZM239.304 146.041L242.206 167.913L237.247 174.39L216.818 177.101L210.341 172.141L207.439 150.269L212.398 143.793L232.827 141.082L239.304 146.041ZM220.298 145.004L224.129 173.871L229.347 173.178L225.516 144.311L220.298 145.004ZM288.737 165.298L289.031 167.518L276.43 169.19L271.211 165.194L267.697 138.714L263.811 139.23L260.441 143.631L263.756 168.612L266.531 168.244L266.826 170.465L246.841 173.117L246.546 170.896L250.988 170.307L247.157 141.44L242.716 142.029L242.421 139.809L254.468 138.21L258.925 141.573L262.295 137.171L275.008 135.485L280.855 139.962L284.296 165.887L288.737 165.298ZM310.454 165.24L307.956 165.572L306.372 153.637L308.87 153.305L309.422 157.469L315.082 161.802L326.795 160.247L305.52 142.96L304.629 136.243L308.625 131.024L325.001 128.851L329.277 132.125L328.703 127.795L331.201 127.463L332.784 139.398L330.286 139.73L329.734 135.566L324.075 131.233L313.472 132.64L334.747 149.928L335.638 156.645L331.642 161.864L314.155 164.184L309.879 160.91L310.454 165.24ZM382.843 152.81L383.137 155.031L371.091 156.629L366.682 153.203L363.264 157.668L350.829 159.318L344.981 154.84L341.541 128.916L337.1 129.505L336.805 127.284L348.574 125.723L354.422 130.2L357.862 156.125L361.748 155.609L365.118 151.208L361.508 124.006L369.114 122.997L374.962 127.475L378.402 153.399L382.843 152.81ZM427.249 146.918L427.544 149.138L414.942 150.81L409.723 146.814L406.209 120.334L402.323 120.85L398.953 125.251L402.268 150.232L405.044 149.864L405.338 152.085L385.354 154.737L385.059 152.516L389.5 151.927L385.669 123.06L381.228 123.649L380.934 121.429L392.98 119.83L397.437 123.193L400.808 118.791L413.52 117.105L419.368 121.582L422.808 147.507L427.249 146.918ZM463.309 142.133L463.604 144.353L452.112 145.878L446.264 141.4L440.762 99.9318L436.876 100.447L436.581 98.227L448.072 96.7021L453.92 101.18L459.423 142.648L463.309 142.133ZM472.633 143.155L466.785 138.677L463.735 115.695L468.213 109.847L489.53 107.018L495.378 111.496L496.586 120.6L492.108 126.448L478.396 128.268L479.943 139.925L492.711 138.231L496.756 132.949L498.705 134.442L494.227 140.29L472.633 143.155ZM476.113 111.058L478.102 126.047L484.208 125.237L482.219 110.248L476.113 111.058ZM565.165 128.617L565.46 130.837L553.136 132.473L547.917 128.476L544.403 101.997L540.517 102.512L537.147 106.914L540.462 131.895L543.792 131.453L544.087 133.673L527.988 135.81L523.863 104.722L519.977 105.238L516.607 109.639L519.922 134.62L523.253 134.178L523.547 136.399L503.007 139.124L502.713 136.904L507.154 136.315L503.323 107.448L498.882 108.037L498.587 105.816L510.634 104.218L515.091 107.581L518.461 103.179L531.174 101.492L535.631 104.855L539.001 100.454L551.436 98.8036L557.284 103.281L560.724 129.206L565.165 128.617ZM568.527 98.7953L564.086 99.3846L563.792 97.1641L575.838 95.5656L580.295 98.9285L583.666 94.5269L596.656 92.8032L602.504 97.2809L605.553 120.263L601.076 126.111L588.085 127.835L585.067 125.524L587.557 144.287L591.443 143.772L591.738 145.992L580.246 147.517L574.399 143.04L568.527 98.7953ZM581.811 100.987L584.61 122.082L589.012 125.452L592.898 124.937L589.067 96.0698L585.182 96.5854L581.811 100.987ZM610.434 93.2346L605.993 93.8239L605.698 91.6034L617.744 90.0048L622.201 93.3678L625.572 88.9662L638.562 87.2425L644.41 91.7201L647.459 114.703L642.982 120.55L629.991 122.274L626.973 119.963L629.463 138.727L633.349 138.211L633.644 140.432L622.152 141.956L616.305 137.479L610.434 93.2346ZM623.717 95.4262L626.517 116.521L630.918 119.892L634.804 119.376L630.974 90.509L627.088 91.0247L623.717 95.4262ZM658.852 118.445L653.633 114.448L652.499 105.899L656.495 100.68L670.762 98.7871L668.994 85.4639L663.165 86.2374L664.343 95.1195L652.686 96.6665L651.824 90.1714L655.82 84.9524L676.86 82.1605L682.079 86.1567L685.592 112.637L690.033 112.047L690.328 114.268L677.726 115.94L673.946 112.996L671.009 116.831L658.852 118.445ZM665.227 101.781L666.995 115.104L669.493 114.773L672.382 111L671.056 101.008L665.227 101.781ZM719.78 80.589L718.287 82.5383L714.263 79.4568L709.545 80.083L706.174 84.4846L709.489 109.466L713.93 108.876L714.225 111.097L702.178 112.695L696.331 108.218L692.89 82.2929L688.449 82.8822L688.155 80.6617L700.201 79.0632L704.658 82.4261L708.029 78.0245L715.19 77.0743L719.78 80.589ZM729.871 70.6068L720.306 63.233L727.68 53.6679L737.245 61.0418L729.871 70.6068ZM746.132 104.603L746.427 106.824L734.381 108.422L728.533 103.945L725.093 78.0198L720.652 78.6091L720.357 76.3886L732.403 74.7901L738.251 79.2678L741.691 105.193L746.132 104.603Z" fill="#19223F"/>
</svg>
