<svg width="758" height="493" viewBox="0 0 758 493" fill="none" xmlns="http://www.w3.org/2000/svg">
<path d="M734 246.53L607.221 289.423L685.632 369.795L544.403 363.599L553.566 460.033L435.773 406.492L372.956 493L310.139 406.492L192.434 460.033L201.509 363.599L60.28 369.795L138.691 289.423L12 246.53L138.691 203.637L60.28 123.205L201.509 129.401L192.434 33.0271L310.139 86.5081L372.956 0L435.773 86.5081L553.566 33.0271L544.403 129.401L685.632 123.205L607.221 203.637L734 246.53Z" fill="#29F8F4"/>
<path d="M452.75 408.491C602.314 393.851 719.234 337.799 713.898 283.295C708.563 228.791 582.993 196.475 433.43 211.115C283.866 225.756 166.946 281.808 172.282 336.312C177.617 390.816 303.187 423.132 452.75 408.491Z" fill="#19223F"/>
<path d="M444.129 392.885C593.692 378.244 710.612 322.192 705.277 267.688C699.942 213.184 574.372 180.868 424.808 195.509C275.245 210.149 158.325 266.201 163.66 320.705C168.996 375.209 294.566 407.525 444.129 392.885Z" fill="#B76FEF"/>
<path d="M80.4156 154.127L76.2283 154.683L69.684 204.617L54.5209 206.63L45.5303 185.097L42.53 208.221L27.3669 210.233L8.02611 163.733L3.83882 164.288L3.50207 161.751L54.7013 154.957L55.038 157.495L50.3432 158.118L67.412 199.173L73.183 155.087L66.2676 156.004L65.9308 153.467L80.0788 151.589L80.4156 154.127ZM43.3303 179.708L35.1801 160.13L23.1892 161.721L40.2581 202.776L43.3303 179.708ZM135.618 193.286L135.955 195.824L122.188 197.65L115.505 192.533L111.573 162.905L106.497 163.578L102.921 168.249L106.751 197.116L110.558 196.611L110.895 199.149L98.3963 200.807L91.7131 195.69L85.4243 148.298L80.3488 148.971L80.012 146.433L93.7793 144.606L100.463 149.724L102.399 164.316L104.765 161.226L119.928 159.214L126.611 164.331L130.543 193.959L135.618 193.286ZM172.019 158.951L175.336 183.948L169.669 191.35L146.321 194.448L138.919 188.78L135.602 163.784L141.27 156.382L164.617 153.284L172.019 158.951ZM150.299 157.766L154.676 190.757L160.64 189.966L156.262 156.975L150.299 157.766ZM185.66 132.414L185.057 149.28L176.048 150.476L173.859 133.98L185.66 132.414ZM201.414 187.783L198.559 188.162L196.749 174.522L199.604 174.143L200.235 178.901L206.703 183.853L220.089 182.077L195.775 162.32L194.756 154.643L199.324 148.678L218.04 146.195L222.926 149.936L222.27 144.988L225.124 144.609L226.935 158.249L224.08 158.628L223.448 153.87L216.98 148.918L204.863 150.526L229.177 170.283L230.196 177.96L225.628 183.924L205.644 186.576L200.757 182.835L201.414 187.783ZM291.617 142.435L297.207 184.562L292.09 191.245L264.555 194.899L258.591 190.332L257.606 182.909L272.198 180.973L273.545 191.124L283.061 189.861L280.384 169.686L277.743 173.135L263.532 175.021L256.848 169.904L253.422 144.082L248.347 144.756L248.01 142.218L261.46 140.433L268.143 145.55L271.57 171.372L276.011 170.783L279.862 165.752L276.579 141.009L272.138 141.599L271.801 139.061L284.934 137.318L291.617 142.435ZM334.47 137.395L337.787 162.392L332.12 169.793L308.772 172.892L301.37 167.224L298.053 142.227L303.721 134.825L327.068 131.727L334.47 137.395ZM312.75 136.21L317.127 169.2L323.091 168.409L318.713 135.418L312.75 136.21ZM390.648 159.445L390.985 161.982L377.217 163.809L372.178 159.894L368.272 164.996L354.06 166.882L347.377 161.765L343.445 132.136L338.37 132.81L338.033 130.272L351.483 128.487L358.166 133.605L362.098 163.233L366.539 162.644L370.391 157.613L366.266 126.526L374.958 125.372L381.641 130.49L385.572 160.118L390.648 159.445ZM424.609 123.497L422.903 125.725L418.304 122.203L412.912 122.919L409.06 127.949L412.848 156.499L417.924 155.825L418.26 158.363L404.493 160.19L397.81 155.072L393.878 125.444L388.803 126.118L388.466 123.58L402.233 121.753L407.327 125.596L411.179 120.566L419.363 119.48L424.609 123.497ZM459.396 98.6731L461.417 113.9L469.664 112.805L470.001 115.343L461.753 116.437L465.685 146.066L460.568 152.749L446.8 154.576L446.464 152.038L451.539 151.365L447.161 118.374L442.086 119.047L441.749 116.509L446.825 115.836L445.25 103.972L450.368 97.2888L464.896 95.3609L470.861 99.928L469.155 102.156L463.837 98.0838L459.396 98.6731ZM485.706 149.413L479.742 144.846L478.445 135.076L483.012 129.111L499.317 126.947L497.297 111.721L490.635 112.605L491.982 122.756L478.659 124.524L477.674 117.101L482.241 111.136L506.286 107.946L512.251 112.513L516.267 142.775L521.342 142.102L521.679 144.64L507.277 146.551L502.957 143.186L499.6 147.569L485.706 149.413ZM492.992 130.369L495.013 145.596L497.868 145.217L501.169 140.905L499.654 129.485L492.992 130.369ZM565.782 102.633L561.468 103.206L554.636 140.266L540.107 142.194L523.846 108.198L519.532 108.77L519.195 106.233L542.606 103.126L542.943 105.664L538.375 106.27L552.49 135.774L558.423 103.61L553.855 104.216L553.518 101.678L565.446 100.095L565.782 102.633ZM607.142 101.212L610.459 126.209L604.792 133.611L581.445 136.709L574.043 131.042L570.726 106.045L576.393 98.6428L599.741 95.5447L607.142 101.212ZM585.422 100.027L589.8 133.018L595.763 132.227L591.386 99.2358L585.422 100.027ZM646.849 94.0066L645.143 96.2343L640.544 92.7127L635.151 93.4283L631.299 98.4587L635.088 127.008L640.163 126.335L640.5 128.873L626.733 130.7L620.049 125.582L616.118 95.9539L611.042 96.6274L610.706 94.0897L624.473 92.2628L629.567 96.1062L633.418 91.0758L641.603 89.9898L646.849 94.0066ZM658.381 82.5985L647.45 74.1712L655.877 63.2396L666.808 71.6669L658.381 82.5985ZM676.966 121.451L677.302 123.989L663.535 125.816L656.852 120.699L652.92 91.0704L647.845 91.7439L647.508 89.2062L661.275 87.3793L667.958 92.4966L671.89 122.125L676.966 121.451ZM707.27 114.008L702.152 120.692L689.527 122.367L682.844 117.25L677.481 76.8359L673.04 77.4252L672.703 74.8875L685.519 73.1869L691.484 77.754L692.721 87.0802L701.603 85.9016L701.94 88.4394L693.058 89.618L696.931 118.802L700.42 118.339L705.042 112.303L707.27 114.008ZM718.416 118.534L711.733 113.416L708.248 87.1504L713.365 80.4672L737.728 77.2344L744.411 82.3517L745.791 92.7565L740.674 99.4398L725.003 101.519L726.771 114.842L741.364 112.906L745.986 106.87L748.213 108.575L743.096 115.259L718.416 118.534ZM722.394 81.8516L724.667 98.9814L731.646 98.0554L729.373 80.9255L722.394 81.8516Z" fill="#19223F"/>
<path d="M258.002 316.533L182.799 309.622L183.267 304.523L193.464 305.46L201.898 213.687L191.701 212.75L192.169 207.651L267.372 214.562L278.137 227.506L275.63 254.783L264.079 264.39L273.686 275.942L270.945 305.768L258.002 316.533ZM231.214 216.381L227.349 258.444L245.576 260.119L249.441 218.056L231.214 216.381ZM226.88 263.542L222.781 308.154L241.008 309.829L245.107 265.217L226.88 263.542ZM361.578 262.167L356.963 312.387L342.628 324.309L295.722 319.999L283.8 305.664L288.415 255.443L302.75 243.521L349.656 247.832L361.578 262.167ZM319.744 250.224L313.653 316.505L325.634 317.606L331.725 251.325L319.744 250.224ZM461.998 330.137L461.529 335.236L432.595 332.577L422.988 321.025L428.575 260.226L419.653 259.406L409.91 267.508L404.639 324.866L411.012 325.452L410.544 330.551L364.657 326.334L365.126 321.235L375.323 322.172L381.414 255.892L371.217 254.955L371.685 249.856L399.345 252.398L407.575 262.152L417.317 254.049L446.506 256.732L457.271 269.675L451.801 329.2L461.998 330.137ZM560.247 339.166L559.778 344.265L532.119 341.723L524.028 331.853L514.146 340.071L482.281 337.143L471.516 324.2L476.365 271.43L489.309 260.665L520.41 263.523L526.66 271.039L530.104 233.565L519.907 232.628L520.375 227.529L548.035 230.071L558.799 243.014L550.05 338.229L560.247 339.166ZM521.553 326.613L525.934 278.942L517.137 268.364L506.94 267.427L500.849 333.708L511.811 334.715L521.553 326.613ZM636.209 259.126L633.585 287.677L622.034 297.285L609.032 296.09L607.275 315.209L583.057 312.984L585.283 288.766L603.765 290.464L607.396 250.951L588.404 249.205L580.054 256.15L579.199 265.455L573.463 264.928L574.517 253.456L586.069 243.849L626.602 247.574L636.209 259.126ZM582.12 323.181L606.338 325.406L604.23 348.35L580.012 346.124L582.12 323.181Z" fill="#19223F"/>
</svg>
